<svg width="21" height="20" viewBox="0 0 21 20" fill="none" xmlns="http://www.w3.org/2000/svg">
<path d="M16.5357 7.2657L16.6186 7.26683C16.9261 7.29226 17.1619 7.54765 17.1782 7.85506L17.1703 8.02647L16.9082 11.2358L16.6333 14.3678C16.5751 14.9931 16.5231 15.5204 16.4781 15.9356C16.3219 17.3823 15.3828 18.277 13.9671 18.3034C11.761 18.3442 9.64053 18.3438 7.58133 18.2993C6.20654 18.2704 5.28128 17.3661 5.12784 15.9414L5.0218 14.8918L4.83651 12.8559L4.64669 10.6217L4.42965 7.93992C4.40268 7.59584 4.65281 7.29448 4.98834 7.26682C5.29591 7.24146 5.56848 7.45489 5.63254 7.75566L5.65748 8.00146L5.86127 10.5156L6.0838 13.1216C6.1836 14.2497 6.27017 15.1627 6.33944 15.804C6.42688 16.6159 6.85437 17.0337 7.60665 17.0495C9.64976 17.0937 11.7545 17.0941 13.945 17.0536C14.743 17.0387 15.1773 16.625 15.2666 15.7978L15.3721 14.7538C15.403 14.4321 15.4361 14.0769 15.471 13.6911L15.6938 11.1282L15.9621 7.8396C15.9869 7.5242 16.2359 7.28244 16.5357 7.2657ZM3.91271 5.82434C3.5761 5.82434 3.30322 5.54451 3.30322 5.19932C3.30322 4.88289 3.53252 4.62139 3.83001 4.58L3.91271 4.57429H6.56799C6.88352 4.57429 7.15976 4.36609 7.25857 4.0661L7.28275 3.97346L7.48909 2.92113C7.67082 2.22416 8.26089 1.72793 8.95239 1.67196L9.08316 1.66669H12.5231C13.2261 1.66669 13.8468 2.12192 14.0858 2.82534L14.1261 2.96009L14.3235 3.97321C14.3855 4.29062 14.6387 4.52768 14.945 4.56816L15.0383 4.57429H17.6937C18.0303 4.57429 18.3032 4.85413 18.3032 5.19932C18.3032 5.51574 18.0739 5.77725 17.7764 5.81863L17.6937 5.82434H3.91271ZM12.5231 2.91673H9.08316C8.91214 2.91673 8.76013 3.01937 8.69699 3.14838L8.67558 3.20505L8.47805 4.21867C8.45389 4.34239 8.41888 4.46152 8.37415 4.57512L13.2322 4.57528C13.2043 4.50441 13.1802 4.43138 13.1601 4.35642L13.1282 4.21842L12.9396 3.24402C12.8955 3.07495 12.7593 2.95117 12.5951 2.92287L12.5231 2.91673Z" fill="#EA7C69"/>
</svg>
